<svg id="Layer_1" data-name="Layer 1" xmlns="http://www.w3.org/2000/svg" viewBox="0 0 512 512"><defs><style>.cls-1{fill:#ffc84d;}.cls-2{fill:#ffb232;}.cls-3{fill:#f0f7ff;}.cls-4{fill:#e1eaf4;}.cls-5{fill:#6b287c;}</style></defs><title>moon-filled</title><path class="cls-1" d="M269.67,356.83C189.17,350.67,124,285.49,117.84,205a164.81,164.81,0,0,1,22-96.26c8-13.66-7.26-29.53-21.3-22.23A199.89,199.89,0,0,0,10.86,272.63C15.19,375.6,99.07,459.48,202,463.81A199.89,199.89,0,0,0,388.17,356.12c7.3-14-8.57-29.29-22.23-21.3A164.81,164.81,0,0,1,269.67,356.83Z"/><path class="cls-2" d="M93.3,102.16a200,200,0,0,1,25.24-15.67c14-7.3,29.29,8.57,21.3,22.23a164.81,164.81,0,0,0-22,96.26c6.16,80.51,71.33,145.68,151.83,151.84,3.15.24,6.26.29,9.38.36a165.88,165.88,0,0,1-57.38,5.66C141.17,356.68,76,291.5,69.84,211a164.8,164.8,0,0,1,22-96.26A15.21,15.21,0,0,0,93.3,102.16ZM365.94,334.82A164.53,164.53,0,0,1,339.89,347a15.43,15.43,0,0,1,.28,15.11A200.35,200.35,0,0,1,212,463.86a199.83,199.83,0,0,0,176.2-107.74C395.47,342.08,379.6,326.83,365.94,334.82Z"/><path class="cls-1" d="M250.56,100.56l9.3,28.62H290a6.6,6.6,0,0,1,3.88,11.94l-24.35,17.69,9.3,28.62a6.6,6.6,0,0,1-10.15,7.38l-24.35-17.69-24.35,17.69a6.6,6.6,0,0,1-10.15-7.38l9.3-28.62-24.35-17.69a6.6,6.6,0,0,1,3.88-11.94h30.1l9.3-28.62A6.6,6.6,0,0,1,250.56,100.56Z"/><path class="cls-3" d="M463.11,405.32a38.11,38.11,0,0,0,3.13-76.11,69.49,69.49,0,0,0-136-12.08,45.08,45.08,0,1,0-13.1,88.19Z"/><path class="cls-4" d="M466.24,329.22a69.44,69.44,0,0,0-124.52-35,69.37,69.37,0,0,1,97.86,56.28,38,38,0,0,1,31.55,53.92,38.1,38.1,0,0,0-4.89-75.25Z"/><path class="cls-5" d="M138.81,439a179.77,179.77,0,0,1-25.22-12.74,10.67,10.67,0,1,0-11.06,18.24,200.66,200.66,0,0,0,28.22,14.25,10.56,10.56,0,0,0,4,.8,10.67,10.67,0,0,0,4-20.55Z"/><path class="cls-5" d="M188.47,149.75l18.08,13.13-6.9,21.25a17.27,17.27,0,0,0,26.56,19.31l18.08-13.14,18.08,13.14a17.27,17.27,0,0,0,26.56-19.31L282,162.88l18.08-13.13A17.27,17.27,0,0,0,290,118.51H267.61l-6.91-21.25a17.26,17.26,0,0,0-32.84,0L221,118.51H198.62a17.27,17.27,0,0,0-10.15,31.23Zm40.24-9.9a10.67,10.67,0,0,0,10.15-7.37l5.43-16.71,5.43,16.71a10.66,10.66,0,0,0,10.14,7.37h17.57l-14.22,10.33a10.67,10.67,0,0,0-3.88,11.93l5.43,16.72-14.22-10.33a10.66,10.66,0,0,0-12.54,0L223.8,178.82l5.43-16.72a10.67,10.67,0,0,0-3.88-11.93l-14.22-10.33Z"/><circle class="cls-5" cx="266.67" cy="261.33" r="10.67"/><circle class="cls-5" cx="362.67" cy="197.33" r="10.67"/><circle class="cls-5" cx="309.34" cy="48" r="10.67"/><path class="cls-5" d="M475.65,320.07a80.17,80.17,0,0,0-152.34-15.2,55.85,55.85,0,0,0-60,40.63c-71.88-9-129.29-68.51-134.89-141.28a154.46,154.46,0,0,1,20.6-90.09A26.75,26.75,0,0,0,113.65,77,211.81,211.81,0,0,0,.18,273.08C2.55,329.38,28.37,383.4,71,421.3a10.67,10.67,0,0,0,14.17-15.95c-38.34-34.07-61.55-82.61-63.68-133.16A190.41,190.41,0,0,1,123.5,96a5.11,5.11,0,0,1,6.29,1.18,5,5,0,0,1,.86,6.21,175.69,175.69,0,0,0-23.46,102.47C113.58,289,179.44,357,261.73,366.78A55.87,55.87,0,0,0,317.18,416h6A188.49,188.49,0,0,1,172.4,449.44a10.67,10.67,0,1,0-4.3,20.9,213.62,213.62,0,0,0,33.49,4.15c2.91.12,5.79.18,8.68.18a212.08,212.08,0,0,0,146-58.68h43.93a10.67,10.67,0,1,0,0-21.33h-83a34.4,34.4,0,1,1,0-68.8,35.76,35.76,0,0,1,10.11,1.49A10.66,10.66,0,0,0,340.56,320a58.81,58.81,0,0,1,115.06,10.24,10.66,10.66,0,0,0,9.75,9.6,27.45,27.45,0,0,1-2.28,54.81h-26a10.67,10.67,0,1,0,0,21.33h26a48.77,48.77,0,0,0,12.56-95.92Z"/></svg>