<svg xmlns="http://www.w3.org/2000/svg" viewBox="0 0 18 18"><defs><style>.cls-1{fill:#4285f4;}.cls-1,.cls-2,.cls-3,.cls-4{fill-rule:evenodd;}.cls-2{fill:#34a853;}.cls-3{fill:#fbbc05;}.cls-4{fill:#ea4335;}.cls-5{fill:none;}</style></defs><g id="Layer_2" data-name="Layer 2"><g id="Layer_1-2" data-name="Layer 1"><g id="Google-Button"><g id="btn_google_light_normal" data-name="btn google light normal"><g id="logo_googleg_48dp" data-name="logo googleg 48dp"><path id="Shape" class="cls-1" d="M17.6,9.2a10.9,10.9,0,0,0-.1-1.8H9v3.4h4.8A4.1,4.1,0,0,1,12,13.6v2.2h3a8.7,8.7,0,0,0,2.6-6.6Z"/><path id="Shape-2" data-name="Shape" class="cls-2" d="M9,18a8.7,8.7,0,0,0,6-2.2l-3-2.2a5.6,5.6,0,0,1-3,.8,5.4,5.4,0,0,1-5-3.7H1V13a8.8,8.8,0,0,0,8,5Z"/><path id="Shape-3" data-name="Shape" class="cls-3" d="M4,10.7A4.7,4.7,0,0,1,3.7,9,4.7,4.7,0,0,1,4,7.3V5H1A7.7,7.7,0,0,0,0,9a7.7,7.7,0,0,0,1,4l3-2.3Z"/><path id="Shape-4" data-name="Shape" class="cls-4" d="M9,3.6a4.7,4.7,0,0,1,3.4,1.3L15,2.3A8.7,8.7,0,0,0,9,0,8.8,8.8,0,0,0,1,5L4,7.3A5.4,5.4,0,0,1,9,3.6Z"/><path id="Shape-5" data-name="Shape" class="cls-5" d="M0,0H18V18H0Z"/></g></g></g></g></g></svg>