<svg xmlns="http://www.w3.org/2000/svg"><defs><style>.cls-1{opacity:0.25;}</style></defs><g id="Layer_2" data-name="Layer 2"><g id="logo"><g id="logo_main"><path d="M6.5,81.4Q1.1,78.6.2,73.6a8,8,0,0,1,2-7.4,13.1,13.1,0,0,1,6.7-3.9,12.7,12.7,0,0,1,6.7-.1,1.6,1.6,0,0,1,1.1,1.4,5.4,5.4,0,0,1-.1,2.2l-.2,1a19.4,19.4,0,0,0-9.5.7c-2.7.9-3.9,2.6-3.8,5S4.8,77,8,78.9a32.5,32.5,0,0,0,12.2,3.7Q31,84,38.5,80.5c5-2.2,7.7-5.3,8.2-9.3a7.6,7.6,0,0,0-3.6-7.5A16,16,0,0,0,33,61.4l-3,.3c-.7-1.4-.4-2.1.9-2.2a12.9,12.9,0,0,0,7.9-3.6,10.1,10.1,0,0,0,3.3-7.7c.1-3.2-.8-5.5-2.9-7s-5.5-2-10.3-1.7c-6.9.5-11.8,2.3-14.8,5.4s-2,3.1-1.3,4.2.1.2.2.3,0,.3-.4.6a5.4,5.4,0,0,1-4.5.1,3.5,3.5,0,0,1-.9-.7c-1.1-1.1-1-2.7.3-4.7s6.7-6,13.6-7.4a57.7,57.7,0,0,1,8.7-1c6.9-.4,12.3.4,16.1,2.2s5.7,4.7,5.5,8.8-3.7,9.1-10.1,11.9c9.9.1,14.8,3.4,14.6,9.7,0,3.5-1.7,6.6-4.9,9.3S43.3,82.8,37.7,84a59.4,59.4,0,0,1-18.6.9A32.5,32.5,0,0,1,6.5,81.4Zm22.2-20-1.5,7.2c-.3,1.4-.6,3-.8,4.6a41.2,41.2,0,0,0-.3,4.8v1.7a7.5,7.5,0,0,0,.2,1.1v.3a5.2,5.2,0,0,1-3.6.3c-1.5-.3-2.4-1-2.6-2a5.7,5.7,0,0,1-.3-1.8c0-.6,0-1.6.1-2.9s.3-2.9.5-4.5.3-4.1.6-7.6.5-7.2.7-11.3a57.4,57.4,0,0,0,0-8.3l.6-.2,1.6-.5,2.1-.5a7.7,7.7,0,0,1,2.1.1,3.8,3.8,0,0,1,1.7.6,5,5,0,0,1,1.4,3.3,24,24,0,0,1-.6,6C30,54.9,29.4,58.1,28.7,61.4Z" transform="translate(0 -27.6)"/><path d="M70,65.2a12.7,12.7,0,0,1-5.5,1.3,6.2,6.2,0,0,0,2.2,3.4,5.2,5.2,0,0,0,3.2,1.3,7.9,7.9,0,0,0,4.5-1.1,5.8,5.8,0,0,0,2.8-3c0-.2.1-.2.4.1a2,2,0,0,1,0,2.1c-.6,1.4-2.1,2.7-4.3,3.8a13.5,13.5,0,0,1-7.2,1.4,11.7,11.7,0,0,1-6.8-2.7,7.6,7.6,0,0,1-2.4-6.6,13.2,13.2,0,0,1,1.6-5.1,10.7,10.7,0,0,1,3.1-3.5,12.7,12.7,0,0,1,3.8-2,11,11,0,0,1,3.8-.7,5.5,5.5,0,0,1,2.8.6,4.3,4.3,0,0,1,2.2,3.4,6.3,6.3,0,0,1-.8,4.4A7.7,7.7,0,0,1,70,65.2Zm-5.7-.4c2.4-1.3,3.7-3.9,4-7.8,0-.9,0-1.4-.3-1.6s-.5,0-1,.6a15.2,15.2,0,0,0-2.6,7.9A2.2,2.2,0,0,0,64.3,64.8Z" transform="translate(0 -27.6)"/><path d="M83.1,61.1a15.2,15.2,0,0,1,3.3-4.7,11.5,11.5,0,0,1,3.9-2.7,7.6,7.6,0,0,1,3.6-.4,3.5,3.5,0,0,1,2.5,1.5,6.9,6.9,0,0,1,1,3.6,7.8,7.8,0,0,1-1.3,4.3,9.7,9.7,0,0,1-3.8,3.7c-.5.2-.3.7.4,1.5a10.9,10.9,0,0,0,3.7,2.6,2.3,2.3,0,0,0,2.4-.7,6.2,6.2,0,0,0,1.7-2.7c0-.2.2-.1.5.2a2,2,0,0,1-.1,2,11.7,11.7,0,0,1-3.6,4.4,5.4,5.4,0,0,1-4.7,1.2,13.1,13.1,0,0,1-4.4-3c-1.7-1.6-2.9-2.9-3.8-3.9s-.6-1.7.2-2.1a14.1,14.1,0,0,0,3.8-3.3A3.6,3.6,0,0,0,89.5,60a5.3,5.3,0,0,0-.5-1.8c-.8-.9-1.8-.4-3.2,1.4s-3.1,6.1-3.6,10.8v3.2a6.2,6.2,0,0,1-4.4.5q-2.7-.6-3-2.4t.9-11.1q1.2-8.7,1.5-12.9a56.5,56.5,0,0,0-.1-8.3l.6-.3,1.4-.5,2-.4a6.7,6.7,0,0,1,2,0,4.4,4.4,0,0,1,1.7.7,5.6,5.6,0,0,1,1.4,3.3,21.4,21.4,0,0,1-.7,6Q83.3,60.1,83.1,61.1Z" transform="translate(0 -27.6)"/><path d="M106.3,61.9a14,14,0,0,1,5.3-5.7,7.7,7.7,0,0,1,5.9-1,2.4,2.4,0,0,1,1.6,2.4,22.6,22.6,0,0,1-.7,5.1l-.2,1.2-.6,3.1a16.5,16.5,0,0,0-.2,2.1,3,3,0,0,0,.2,1.5c.1.3.3.4.6.5s1.4,0,2.2-.9a9.2,9.2,0,0,0,1.7-3.1c0-.2.2-.1.5.2s.3,1.1-.2,2a9,9,0,0,1-3.9,4.1,6.6,6.6,0,0,1-5.3.9q-3.7-1-2.7-9a18.9,18.9,0,0,1,.9-3.4,19.3,19.3,0,0,1,.6-2,1.3,1.3,0,0,0-.2-.8q-.7-.5-2.1.6a11,11,0,0,0-2.5,4,24.5,24.5,0,0,0-1.7,6.6,12.7,12.7,0,0,0,.1,2v1.3a6.5,6.5,0,0,1-4.5.5c-1.8-.4-2.8-1.2-2.9-2.4s.1-5.4.9-11.1,1.3-10.1,1.4-12.9a57.4,57.4,0,0,0,0-8.3l.6-.3,1.4-.5,2-.4a6,6,0,0,1,1.9,0,3.4,3.4,0,0,1,1.7.7,5,5,0,0,1,1.4,3.3,24.9,24.9,0,0,1-.6,6C107.6,54.3,106.7,58.9,106.3,61.9Z" transform="translate(0 -27.6)"/><path d="M124.3,58.3a3.9,3.9,0,0,1-3-2.3,2.7,2.7,0,0,1,.4-3c1-1.7,2.3-2.6,4-2.5s2.4,1.1,2.2,3.3a7.6,7.6,0,0,1-.1,1.4H131l2.5-.3h1.6a1.6,1.6,0,0,1,1.1.4q.6.9-1.2,8.7c-.9,4.4-.8,6.8.5,7.2s1.6,0,2.5-.9a9,9,0,0,0,1.8-3.1c0-.2.2-.2.5.1a2,2,0,0,1,0,2.1,9.5,9.5,0,0,1-4.3,4.1q-3.1,1.6-5.4.9c-2.8-.8-3.9-3.8-3.1-9l1.2-6.7H127a39.5,39.5,0,0,1-4.6,11c-.7,1.2-1.3,1.4-1.7.8a.8.8,0,0,1-.1-.3C122.4,67.5,123.6,63.5,124.3,58.3Z" transform="translate(0 -27.6)"/><path d="M151.9,56.8a5.2,5.2,0,0,1,7,.1,31.7,31.7,0,0,0-1.1,7c-.4,4.6,0,7.1,1.1,7.4a2,2,0,0,0,2.1-.9,12.8,12.8,0,0,0,1.5-3.1c0-.2.2-.2.5,0a1.8,1.8,0,0,1-.1,2.1,9.6,9.6,0,0,1-3.9,4.3,6.6,6.6,0,0,1-5.5.4c-1.9-.6-3-2.4-3.4-5.4a11.1,11.1,0,0,1-3.5,4.4,5.9,5.9,0,0,1-4.3,1.3,4.4,4.4,0,0,1-3.5-2.5,9.9,9.9,0,0,1-.7-6.2c.6-4.8.9-8.1.7-9.7l1.1-.4,2-.5a7.1,7.1,0,0,1,2.5-.1,3.3,3.3,0,0,1,1.9.7c1.2,1.2,1.3,3.8.1,7.9S145,71,146.3,71s1.2-.6,1.9-1.8a16.9,16.9,0,0,0,1.5-4.2,29.3,29.3,0,0,1,.3-4.1A5.9,5.9,0,0,1,151.9,56.8Z" transform="translate(0 -27.6)"/><path d="M169.8,73.9q-2.2,2.5-3.9,2.1c-1.6-.5-2.3-1.7-2.1-3.7a5.4,5.4,0,0,1,2.9-4.6,5.5,5.5,0,0,1,4.9-.2c1-2,1.6-3.3,1.9-4a.8.8,0,0,0,.2-.5,5.8,5.8,0,0,1-1.8.4,10,10,0,0,1-5.4-.9,53.5,53.5,0,0,1-3.7,7.3c-.7,1.1-1.2,1.3-1.6.7a.4.4,0,0,1-.1-.3,35.6,35.6,0,0,0,3.2-9.2,8.8,8.8,0,0,1-2.4-3.7,6.4,6.4,0,0,1,.1-4.1,3.7,3.7,0,0,1,2.2-2.2,3.3,3.3,0,0,1,4.5,3.4,8.8,8.8,0,0,1-.2,1.6,26.8,26.8,0,0,0,9.4-.6,5.1,5.1,0,0,1,2.5-2.1,1.2,1.2,0,0,1,1.6.7c.3.8,0,2.1-1.1,3.9a10.6,10.6,0,0,1-4.8,4.3,2.4,2.4,0,0,0-.3.7,1.7,1.7,0,0,0-.3.7c-.7,1.8-1.5,3.3-2.2,4.7,2.8,1.3,5,2,6.6,2s2.8-1.1,3.4-3q.1-.3.6,0a2.2,2.2,0,0,1-.1,2.1c-2.2,4.8-5,6.9-8.3,6.4A25.2,25.2,0,0,1,169.8,73.9Z" transform="translate(0 -27.6)"/><path d="M193.7,73.7a8.1,8.1,0,0,1-3.8,1.4,3.6,3.6,0,0,1-2.6-1.4,4,4,0,0,1-1.3-3.2,3.7,3.7,0,0,1,1.9-2.9,6.7,6.7,0,0,1,3.9-1.2,4.5,4.5,0,0,1,3.3,1.2,3.7,3.7,0,0,1,1,2.9C196,71.7,195.2,72.7,193.7,73.7Z" transform="translate(0 -27.6)"/><path d="M207.9,59.7a5.9,5.9,0,0,0,.7-3c0-.4-.1-.7-.3-.8a.6.6,0,0,0-.8,0,1.8,1.8,0,0,0-1,.8c-.8,1-1.4,3.3-1.7,6.7a8.1,8.1,0,0,0,1.1,5.5,5.1,5.1,0,0,0,4.2,2.2,8.8,8.8,0,0,0,4.7-1.1,5.6,5.6,0,0,0,2.8-2.9c0-.2.1-.2.4.1a2,2,0,0,1,0,2.1,10,10,0,0,1-4.2,3.9,13.6,13.6,0,0,1-7.3,1.3,10.5,10.5,0,0,1-6.7-2.9,7.8,7.8,0,0,1-2.5-6.8,11.3,11.3,0,0,1,1.9-5.5,10.4,10.4,0,0,1,3.8-3.5,15.6,15.6,0,0,1,4.5-1.4,5.7,5.7,0,0,1,4.1.6,5.5,5.5,0,0,1,2.7,2.7,4.8,4.8,0,0,1,.1,3.7c-.9,1.9-3.1,2.4-6.6,1.4-1.4-.5-2.1-.8-2.1-1A3.5,3.5,0,0,0,207.9,59.7Z" transform="translate(0 -27.6)"/><path d="M217.5,72a7.8,7.8,0,0,1-2.3-6.8c.3-3.3,1.5-5.8,3.8-7.5a10.3,10.3,0,0,1,6.9-2.5,2.7,2.7,0,0,1,2.5-1.8q2.3-.4,3.6,2.7a16.9,16.9,0,0,1,.8,7.8,12.8,12.8,0,0,1-.7,3.4h.2a1.1,1.1,0,0,0,.8-.3l.8-.4.6-.6.5-.6.3-.6.2-.2c.2-.2.4-.2.6.2s.2.8-.1,1.5a4.7,4.7,0,0,1-4,2.6h-.6a9.5,9.5,0,0,1-7.9,5.4A7.5,7.5,0,0,1,217.5,72Zm7.8-15.6-.3.2a5.4,5.4,0,0,0-1.6,2.8,24.1,24.1,0,0,0-.7,4.9,9.7,9.7,0,0,0,.8,4.6,2.9,2.9,0,0,0,2.5,1.7c1.4.1,2.5-.6,3.6-2.2a7.4,7.4,0,0,1-3.7-3.9A11.5,11.5,0,0,1,225.3,56.4ZM230.4,67a8.9,8.9,0,0,0,.7-2.6,5.9,5.9,0,0,0-.4-3.1,1.6,1.6,0,0,0-1.6-1,1.9,1.9,0,0,0-1.4,1.1,3.3,3.3,0,0,0,0,2.4A4.6,4.6,0,0,0,230.4,67Z" transform="translate(0 -27.6)"/><path d="M247.7,61.8c.3-1.2.5-1.9.6-2.2a1.9,1.9,0,0,0-.1-1c-.6-.3-1.4.1-2.3,1.2a18.6,18.6,0,0,0-2.6,5.3,31,31,0,0,0-1.5,7.6v1.4a6.7,6.7,0,0,1-4.3.4q-2.4-.4-2.7-2.4a52.4,52.4,0,0,1-.1-9,39.3,39.3,0,0,0,0-8.4l1.1-.4,2.2-.5a8.6,8.6,0,0,1,2.7-.2,3.4,3.4,0,0,1,2,.7c1.2,1.1,1.6,3.1,1.1,6a11.9,11.9,0,0,1,4.9-4.6,6.1,6.1,0,0,1,5-.5,2.2,2.2,0,0,1,1.4,2.1,18.2,18.2,0,0,1-.5,4.7,13.6,13.6,0,0,1,5.2-6c2.2-1.2,4.1-1.5,5.8-.8s1.6,1.4,1.6,2.9a17.8,17.8,0,0,1-.9,5.8q-1.5,6.8,0,7.2c.7.3,1.4,0,2.2-.9a9.2,9.2,0,0,0,1.7-3.1c0-.2.1-.2.4.1a2,2,0,0,1,0,2.1,9.2,9.2,0,0,1-4,4.1,6.4,6.4,0,0,1-5.2.9q-3.9-1-2.7-9a22.1,22.1,0,0,1,.8-3.5,19.7,19.7,0,0,1,.7-2.2,1.4,1.4,0,0,0-.2-1c-.6-.3-1.3.1-2.2,1.2a18.6,18.6,0,0,0-2.6,5.3,27,27,0,0,0-1.5,7.6q.1.9,0,.9c-1.1.8-2.6.9-4.5.6s-2.8-1.2-2.9-2.5a31.7,31.7,0,0,1,.4-6.4A22.5,22.5,0,0,1,247.7,61.8Z" transform="translate(0 -27.6)"/></g><g id="initB" class="cls-1"><path d="M102.5,92q-7.8-4.1-9-11.1a11.4,11.4,0,0,1,2.8-10.5,19.2,19.2,0,0,1,9.5-5.7,18.4,18.4,0,0,1,9.6-.1,2.4,2.4,0,0,1,1.6,2,10.6,10.6,0,0,1-.1,3.1l-.3,1.5c-5.3-.7-9.9-.4-13.6.9s-5.6,3.7-5.4,7.2,2.4,6.4,7,9.1A48.9,48.9,0,0,0,122,93.7q15.5,1.8,26.1-3c7.1-3.1,10.9-7.6,11.6-13.2a10.6,10.6,0,0,0-5.2-10.8c-3.9-2.6-8.7-3.6-14.4-3.2a29.6,29.6,0,0,1-4.2.4c-.9-2-.5-3,1.3-3.2a17.8,17.8,0,0,0,11.2-5,15.3,15.3,0,0,0,4.8-11c.1-4.6-1.2-7.9-4.2-10s-7.8-2.8-14.6-2.4c-9.9.6-16.9,3.2-21.2,7.7q-3.3,3.6-1.8,6l.3.5c.2.1-.1.3-.6.7a7.2,7.2,0,0,1-6.4.1l-1.3-1c-1.5-1.5-1.4-3.8.4-6.7,3.2-4.9,9.7-8.4,19.5-10.4a75.2,75.2,0,0,1,12.4-1.5c9.8-.5,17.4.6,22.9,3.1s8.1,6.8,7.8,12.6c-.5,7.3-5.2,12.9-14.4,16.9,14.1.2,21.1,4.8,20.9,13.9-.1,5-2.5,9.4-7.1,13.2s-10.9,6.6-18.9,8.3a87.7,87.7,0,0,1-26.4,1.2A46.8,46.8,0,0,1,102.5,92ZM134,63.5q-1.4,7.2-2.1,10.2c-.4,2.1-.8,4.3-1.1,6.6a54.5,54.5,0,0,0-.5,6.8,17.7,17.7,0,0,0,.1,2.4c.1.8.2,1.3.2,1.6v.4a7.1,7.1,0,0,1-5.1.4c-2.1-.4-3.4-1.3-3.7-2.8a7.5,7.5,0,0,1-.4-2.6,36.9,36.9,0,0,1,.2-4.1c.2-1.9.4-4,.6-6.4s.5-5.9.9-10.8.7-10.3,1-16a66.9,66.9,0,0,0-.1-11.9l1-.4,2.2-.7a17.7,17.7,0,0,1,3-.6,15,15,0,0,1,3,0,5.3,5.3,0,0,1,2.4,1,6.6,6.6,0,0,1,2,4.7,31.7,31.7,0,0,1-.8,8.5C135.9,54.2,135,58.8,134,63.5Z" transform="translate(0 -27.6)"/></g></g></g></svg>