<?xml version="1.0" encoding="iso-8859-1"?>
<!-- Generator: Adobe Illustrator 18.0.0, SVG Export Plug-In . SVG Version: 6.00 Build 0)  -->
<!DOCTYPE svg PUBLIC "-//W3C//DTD SVG 1.1//EN" "http://www.w3.org/Graphics/SVG/1.1/DTD/svg11.dtd">
<svg version="1.1" id="Capa_1" xmlns="http://www.w3.org/2000/svg" xmlns:xlink="http://www.w3.org/1999/xlink" x="0px" y="0px"
	 viewBox="0 0 141.924 141.924" style="enable-background:new 0 0 141.924 141.924;" xml:space="preserve">
<g id="sun4">
	<g>
		<g>
			<circle style="fill:#FFB829;" cx="70.962" cy="70.961" r="43.141"/>
		</g>
	</g>
	<g>
		<g>
			<path style="fill:#FDDD66;" d="M86.749,140.189l-15.786-25.964l-15.787,25.963l-2.979-30.246l-25.495,16.5l10.432-28.511
				l-30.146,3.852l21.796-21.186L0,70.961l28.786-9.635L6.989,40.14l30.146,3.852L26.703,15.48l25.495,16.502l2.978-30.246
				l15.787,25.963L86.749,1.736l2.979,30.246l25.495-16.5l-10.433,28.51l30.146-3.851l-21.797,21.185l28.786,9.635l-28.786,9.636
				l21.797,21.187l-30.146-3.853l10.432,28.513l-25.494-16.502L86.749,140.189z M59.391,95.016l1.834,18.63l9.737-16.015
				l9.737,16.014l1.834-18.629L98.269,105.2l-6.446-17.616l18.577,2.373L96.98,76.914l17.782-5.953L96.98,65.009l13.42-13.043
				l-18.577,2.373l6.446-17.616L82.534,46.908L80.7,28.279l-9.737,16.014l-9.737-16.014l-1.834,18.629L43.656,36.723l6.446,17.616
				l-18.577-2.373l13.42,13.043l-17.783,5.952l17.783,5.953l-13.42,13.042l18.576-2.372L43.656,105.2L59.391,95.016z"/>
		</g>
	</g>
	<g>
		<g>
			<circle style="fill:#FFB829;" cx="70.963" cy="70.961" r="34.152"/>
		</g>
	</g>
</g>
<g>
</g>
<g>
</g>
<g>
</g>
<g>
</g>
<g>
</g>
<g>
</g>
<g>
</g>
<g>
</g>
<g>
</g>
<g>
</g>
<g>
</g>
<g>
</g>
<g>
</g>
<g>
</g>
<g>
</g>
</svg>
